<svg xmlns="http://www.w3.org/2000/svg" viewBox="0 0 768 512">
  <rect width="768" height="512" fill="#fbfbf5"/>
  <path d="M0 420c112-57 202-28 299-45 116-21 224-73 469-12v149H0z" fill="#e5ead9"/>
  <g fill="#cbd7b8">
    <circle cx="116" cy="294" r="72"/><circle cx="174" cy="247" r="84"/>
    <circle cx="604" cy="261" r="92"/><circle cx="674" cy="310" r="68"/>
  </g>
  <g fill="#718b62">
    <path d="M67 382c17-91 38-138 73-176-5 74-15 131-34 180z"/>
    <path d="M700 384c-8-92-29-146-65-189 2 82 11 142 29 190z"/>
  </g>
  <path d="M270 404V196c0-55 45-100 100-100h28c55 0 100 45 100 100v208z" fill="#f5f2e7" stroke="#65765b" stroke-width="10"/>
  <path d="M315 404V213c0-34 28-62 62-62h14c34 0 62 28 62 62v191z" fill="#6d7f62"/>
  <path d="M334 386V226c0-24 19-43 43-43h14c24 0 43 19 43 43v160z" fill="#d8ddca"/>
  <circle cx="408" cy="289" r="8" fill="#607a52"/>
  <path d="M240 404h288M218 438h332" stroke="#65765b" stroke-width="10" stroke-linecap="round"/>
  <path d="M292 82h184M322 57h124" stroke="#8ca17e" stroke-width="9" stroke-linecap="round"/>
</svg>
